<svg width="960" height="288" viewBox="0 0 960 288" fill="none" xmlns="http://www.w3.org/2000/svg">
<path d="M0 124.663V3.49017H42.3302V46.4257L78.4398 3.49017H128.417L80.3515 57.8842L136.306 124.678H83.4618L42.315 74.5788V124.663H0Z" fill="white"/>
<path d="M184.053 127.774C164.208 127.774 147.943 121.809 135.032 109.653C122.12 97.4808 115.657 82.228 115.657 64.0916C115.657 45.9552 122.12 30.93 135.032 18.7733C147.943 6.58627 164.208 0.378906 184.053 0.378906C203.898 0.378906 220.162 6.58626 233.074 18.743C245.985 30.9149 252.449 45.94 252.449 64.0612C252.449 82.1825 245.985 97.4656 233.074 109.622C220.162 121.794 203.898 127.744 184.053 127.744V127.774ZM184.053 36.4089C168.501 36.4089 157.274 48.5808 157.274 64.0764C157.274 79.5721 168.517 91.7439 184.053 91.7439C199.589 91.7439 210.832 80.0577 210.832 64.0764C210.832 48.0951 199.589 36.4089 184.053 36.4089Z" fill="white"/>
<path d="M258.821 124.663V3.49017H301.151V45.7124H338.93V3.49017H381.26V124.663H338.93V79.5721H301.151V124.663H258.821Z" fill="white"/>
<path d="M393.216 124.663V3.49017H472.839V37.3499H435.546V124.663H393.216Z" fill="white"/>
<path d="M480.759 172.379V3.49017H523.089V17.0735C531.464 5.85777 543.419 0.378906 559.441 0.378906C575.463 0.378906 588.617 6.58627 599.131 18.743C609.646 30.9149 614.91 45.94 614.91 64.0612C614.91 82.1825 609.646 97.4657 599.131 109.622C588.617 121.794 575.463 127.744 559.441 127.744C543.419 127.744 531.706 122.25 523.089 111.049V172.349H480.759V172.379ZM572.838 64.0916C572.838 48.1103 562.324 36.1813 547.258 36.1813C536.486 36.1813 528.596 40.4763 523.104 49.0665V79.1168C528.611 87.7069 536.501 92.002 547.258 92.002C562.324 92.002 572.838 80.0729 572.838 64.0916Z" fill="white"/>
<path d="M637.911 110.594C624.757 98.9074 618.294 83.3966 618.294 64.0764C618.294 46.1828 624.272 30.9149 636 18.7582C647.713 6.58626 663.264 0.394083 682.639 0.394083C699.859 0.394083 713.969 6.35861 724.726 18.2877C735.726 29.9739 741.218 45.2419 741.218 63.8488V74.336H659.911C663.507 86.9784 677.844 93.1858 695.307 93.1858C708.462 93.1858 721.616 89.604 734.285 82.6985V115.147C722.814 123.494 706.778 127.789 685.977 127.789C667.087 127.789 651.066 122.067 637.911 110.609V110.594ZM699.844 51.9045C699.601 39.7327 690.999 31.3853 680.712 31.3853C669.469 31.3853 661.337 39.247 659.668 51.9045H699.844Z" fill="white"/>
<path d="M765.372 110.594C752.218 99.1503 745.527 83.6395 745.527 63.8336C745.527 44.0277 752.218 28.5321 765.615 17.3163C779.012 6.10061 794.791 0.378906 812.724 0.378906C826.121 0.378906 838.077 2.76168 848.591 7.77007V43.0868C838.79 39.0345 828.974 36.8794 819.415 36.8794C801.239 36.8794 787.129 47.139 787.129 64.0764C787.129 81.0139 801.239 91.5011 819.172 91.5011C830.885 91.5011 841.172 89.1183 850.26 84.3376V119.396C838.547 124.89 825.863 127.744 812.239 127.744C794.305 127.744 778.754 122.022 765.372 110.563V110.594Z" fill="white"/>
<path d="M875.112 110.594C861.958 99.1503 855.267 83.6395 855.267 63.8336C855.267 44.0277 861.958 28.5321 875.355 17.3163C888.752 6.10061 904.531 0.378906 922.464 0.378906C935.861 0.378906 947.817 2.76168 958.331 7.77007V43.0868C948.53 39.0345 938.714 36.8794 929.155 36.8794C910.979 36.8794 896.869 47.139 896.869 64.0764C896.869 81.0139 910.979 91.5011 928.912 91.5011C940.625 91.5011 950.912 89.1183 960 84.3376V119.396C948.287 124.89 935.603 127.744 921.979 127.744C904.045 127.744 888.494 122.022 875.112 110.563V110.594Z" fill="white"/>
<path d="M413.519 222.372V227.703C413.519 229.867 413.28 231.77 412.802 233.414C412.339 235.043 411.658 236.406 410.759 237.501C409.859 238.597 408.778 239.419 407.514 239.967C406.249 240.515 404.823 240.789 403.236 240.789C401.705 240.789 400.307 240.515 399.043 239.967C397.778 239.419 396.69 238.597 395.777 237.501C394.864 236.406 394.154 235.043 393.648 233.414C393.157 231.77 392.911 229.867 392.911 227.703V222.372C392.911 220.209 393.157 218.312 393.648 216.683C394.14 215.039 394.842 213.67 395.756 212.574C396.669 211.478 397.757 210.656 399.022 210.108C400.286 209.547 401.684 209.266 403.215 209.266C404.802 209.266 406.228 209.547 407.492 210.108C408.771 210.656 409.852 211.478 410.737 212.574C411.637 213.67 412.325 215.039 412.802 216.683C413.28 218.312 413.519 220.209 413.519 222.372ZM409.684 227.703V222.33C409.684 220.644 409.543 219.197 409.262 217.989C408.982 216.767 408.567 215.77 408.019 214.997C407.471 214.224 406.797 213.656 405.996 213.29C405.196 212.911 404.268 212.721 403.215 212.721C402.218 212.721 401.318 212.911 400.518 213.29C399.731 213.656 399.057 214.224 398.495 214.997C397.933 215.77 397.497 216.767 397.188 217.989C396.893 219.197 396.746 220.644 396.746 222.33V227.703C396.746 229.403 396.893 230.864 397.188 232.086C397.497 233.294 397.933 234.292 398.495 235.078C399.071 235.851 399.759 236.427 400.56 236.806C401.361 237.171 402.253 237.354 403.236 237.354C404.29 237.354 405.217 237.171 406.017 236.806C406.832 236.427 407.507 235.851 408.04 235.078C408.588 234.292 408.996 233.294 409.262 232.086C409.543 230.864 409.684 229.403 409.684 227.703Z" fill="white"/>
<path d="M429.301 228.335H422.601V225.027H429.301C430.566 225.027 431.584 224.774 432.357 224.269C433.144 223.763 433.712 223.06 434.064 222.161C434.429 221.262 434.612 220.237 434.612 219.085C434.612 218.031 434.429 217.041 434.064 216.114C433.712 215.187 433.144 214.442 432.357 213.88C431.584 213.304 430.566 213.016 429.301 213.016H423.401V240.367H419.524V209.687H429.301C431.282 209.687 432.954 210.087 434.316 210.888C435.679 211.689 436.712 212.799 437.414 214.217C438.13 215.622 438.489 217.231 438.489 219.043C438.489 221.009 438.13 222.688 437.414 224.079C436.712 225.47 435.679 226.53 434.316 227.261C432.954 227.977 431.282 228.335 429.301 228.335Z" fill="white"/>
<path d="M459.602 209.687V213.016H447.549V240.367H443.672V209.687H459.602Z" fill="white"/>
<path d="M470.391 212.405L462.005 240.367H458.043L467.926 209.687H470.412L470.391 212.405ZM477.176 240.367L468.79 212.405L468.747 209.687H471.255L481.137 240.367H477.176ZM477.176 229.01V232.339H462.384V229.01H477.176Z" fill="white"/>
<path d="M501.998 222.878V226.186H488.702V222.878H501.998ZM489.229 209.687V240.367H485.352V209.687H489.229ZM505.433 209.687V240.367H501.556V209.687H505.433Z" fill="white"/>
<path d="M516.158 233.329L528.106 209.687H531.983V240.367H528.106V216.704L516.158 240.367H512.302V209.687H516.158V233.329Z" fill="white"/>
<path d="M546.902 225.638H543.91V223.046H546.775C547.969 223.046 548.932 222.829 549.662 222.393C550.393 221.958 550.926 221.354 551.264 220.581C551.601 219.808 551.769 218.916 551.769 217.905C551.769 216.936 551.58 216.051 551.2 215.25C550.835 214.435 550.266 213.789 549.494 213.311C548.721 212.82 547.716 212.574 546.48 212.574C545.567 212.574 544.738 212.799 543.994 213.248C543.249 213.684 542.659 214.295 542.224 215.081C541.802 215.854 541.592 216.746 541.592 217.757H537.715C537.715 216.451 537.939 215.278 538.389 214.238C538.852 213.185 539.485 212.293 540.285 211.562C541.1 210.818 542.034 210.249 543.088 209.856C544.155 209.462 545.286 209.266 546.48 209.266C547.871 209.266 549.128 209.455 550.252 209.835C551.376 210.2 552.338 210.748 553.139 211.478C553.954 212.209 554.572 213.115 554.993 214.196C555.429 215.278 555.646 216.535 555.646 217.968C555.646 219.022 555.436 220.012 555.014 220.939C554.593 221.866 553.996 222.681 553.223 223.384C552.451 224.086 551.53 224.641 550.463 225.048C549.395 225.442 548.208 225.638 546.902 225.638ZM543.91 223.847H546.902C548.335 223.847 549.613 224.023 550.737 224.374C551.875 224.725 552.837 225.238 553.624 225.912C554.41 226.586 555.007 227.422 555.415 228.42C555.836 229.403 556.047 230.534 556.047 231.812C556.047 233.245 555.808 234.516 555.33 235.626C554.867 236.736 554.207 237.677 553.35 238.45C552.493 239.222 551.481 239.805 550.315 240.199C549.149 240.592 547.871 240.789 546.48 240.789C545.356 240.789 544.254 240.62 543.172 240.283C542.09 239.932 541.107 239.398 540.222 238.681C539.351 237.951 538.649 237.024 538.115 235.9C537.595 234.776 537.335 233.428 537.335 231.854H541.212C541.212 232.88 541.43 233.821 541.866 234.678C542.315 235.535 542.933 236.223 543.72 236.743C544.507 237.249 545.427 237.501 546.48 237.501C547.688 237.501 548.714 237.263 549.557 236.785C550.414 236.293 551.06 235.626 551.495 234.783C551.945 233.926 552.17 232.964 552.17 231.896C552.17 230.955 552.05 230.14 551.811 229.452C551.587 228.75 551.242 228.174 550.779 227.724C550.329 227.275 549.768 226.945 549.093 226.734C548.433 226.509 547.66 226.397 546.775 226.397H543.91V223.847Z" fill="white"/>
<path d="M571.155 212.405L562.769 240.367H558.807L568.69 209.687H571.176L571.155 212.405ZM577.94 240.367L569.554 212.405L569.511 209.687H572.019L581.902 240.367H577.94ZM577.94 229.01V232.339H563.148V229.01H577.94Z" fill="white"/>
<path d="M608.831 236.954L608.452 247.763H604.996V240.367H602.446V236.954H608.831ZM586.305 240.367V209.687H590.183V237.059H602.172V209.687H606.05V240.367H586.305Z" fill="white"/>
<path d="M617.765 233.329L629.713 209.687H633.59V240.367H629.713V216.704L617.765 240.367H613.909V209.687H617.765V233.329Z" fill="white"/>
<path d="M654.704 228.42H648.045L646.085 227.598C644.175 226.895 642.707 225.821 641.682 224.374C640.67 222.913 640.164 221.101 640.164 218.937C640.164 216.957 640.537 215.278 641.281 213.901C642.026 212.525 643.086 211.478 644.463 210.762C645.854 210.045 647.49 209.687 649.373 209.687H657.759V240.367H653.882V213.016H649.373C647.589 213.016 646.254 213.55 645.369 214.618C644.484 215.685 644.042 217.125 644.042 218.937C644.042 220.117 644.238 221.171 644.632 222.098C645.039 223.025 645.643 223.756 646.444 224.29C647.244 224.823 648.249 225.09 649.457 225.09H654.725L654.704 228.42ZM649.52 226.312L643.283 240.367H639.153L645.601 226.312H649.52Z" fill="white"/>
<path d="M695.056 237.059V240.367H675.817V237.059H695.056ZM676.407 237.059V247.911H672.551L672.53 237.059H676.407ZM698.427 237.059L698.385 247.89H694.55V237.059H698.427ZM691.431 209.687V213.016H680.306V209.687H691.431ZM694.824 209.687V240.367H690.947V209.687H694.824ZM678.978 209.687H682.855L682.307 222.035C682.237 223.889 682.097 225.603 681.886 227.176C681.675 228.736 681.401 230.162 681.064 231.454C680.741 232.746 680.369 233.905 679.947 234.931C679.526 235.942 679.069 236.82 678.578 237.565C678.086 238.295 677.566 238.899 677.018 239.377C676.471 239.84 675.909 240.171 675.333 240.367H673.71V237.059H674.785C675.094 236.666 675.431 236.097 675.796 235.352C676.176 234.608 676.541 233.645 676.892 232.465C677.257 231.271 677.573 229.817 677.84 228.104C678.121 226.39 678.311 224.367 678.409 222.035L678.978 209.687Z" fill="white"/>
<path d="M719.646 237.059V240.367H706.329V237.059H719.646ZM707.024 209.687V240.367H703.147V209.687H707.024ZM717.855 222.878V226.186H706.329V222.878H717.855ZM719.435 209.687V213.016H706.329V209.687H719.435Z" fill="white"/>
<path d="M740.928 209.687V213.016H729.466V209.687H740.928ZM744.342 209.687V240.367H740.465V209.687H744.342ZM728.159 209.687H732.015L731.467 224.711C731.397 226.874 731.264 228.806 731.067 230.506C730.87 232.191 730.589 233.659 730.224 234.91C729.859 236.146 729.381 237.171 728.791 237.986C728.201 238.787 727.478 239.384 726.621 239.777C725.778 240.171 724.774 240.367 723.608 240.367H722.596V237.059L723.334 236.996C723.98 236.94 724.535 236.764 724.998 236.469C725.476 236.16 725.869 235.696 726.178 235.078C726.502 234.46 726.761 233.659 726.958 232.676C727.169 231.693 727.33 230.492 727.443 229.073C727.555 227.64 727.639 225.968 727.696 224.058L728.159 209.687Z" fill="white"/>
<path d="M771.145 222.372V227.703C771.145 229.867 770.906 231.77 770.429 233.414C769.965 235.043 769.284 236.406 768.385 237.501C767.486 238.597 766.404 239.419 765.14 239.967C763.875 240.515 762.45 240.789 760.862 240.789C759.331 240.789 757.933 240.515 756.669 239.967C755.405 239.419 754.316 238.597 753.403 237.501C752.49 236.406 751.78 235.043 751.275 233.414C750.783 231.77 750.537 229.867 750.537 227.703V222.372C750.537 220.209 750.783 218.312 751.275 216.683C751.766 215.039 752.469 213.67 753.382 212.574C754.295 211.478 755.384 210.656 756.648 210.108C757.912 209.547 759.31 209.266 760.841 209.266C762.428 209.266 763.854 209.547 765.119 210.108C766.397 210.656 767.479 211.478 768.364 212.574C769.263 213.67 769.951 215.039 770.429 216.683C770.906 218.312 771.145 220.209 771.145 222.372ZM767.31 227.703V222.33C767.31 220.644 767.17 219.197 766.889 217.989C766.608 216.767 766.193 215.77 765.645 214.997C765.098 214.224 764.423 213.656 763.622 213.29C762.822 212.911 761.895 212.721 760.841 212.721C759.844 212.721 758.945 212.911 758.144 213.29C757.357 213.656 756.683 214.224 756.121 214.997C755.559 215.77 755.124 216.767 754.815 217.989C754.52 219.197 754.372 220.644 754.372 222.33V227.703C754.372 229.403 754.52 230.864 754.815 232.086C755.124 233.294 755.559 234.292 756.121 235.078C756.697 235.851 757.385 236.427 758.186 236.806C758.987 237.171 759.879 237.354 760.862 237.354C761.916 237.354 762.843 237.171 763.644 236.806C764.458 236.427 765.133 235.851 765.666 235.078C766.214 234.292 766.622 233.294 766.889 232.086C767.17 230.864 767.31 229.403 767.31 227.703Z" fill="white"/>
<path d="M786.443 226.017H780.206L780.164 222.751H785.958C786.829 222.751 787.602 222.555 788.276 222.161C788.951 221.768 789.477 221.206 789.857 220.476C790.25 219.731 790.447 218.846 790.447 217.821C790.447 216.697 790.278 215.784 789.941 215.081C789.618 214.365 789.119 213.845 788.445 213.522C787.785 213.185 786.942 213.016 785.916 213.016H781.028V240.367H777.15V209.687H785.916C787.237 209.687 788.417 209.849 789.456 210.172C790.496 210.481 791.374 210.972 792.09 211.647C792.821 212.307 793.376 213.15 793.755 214.175C794.134 215.201 794.324 216.43 794.324 217.863C794.324 219.127 794.036 220.272 793.46 221.297C792.898 222.309 792.111 223.138 791.1 223.784C790.088 224.43 788.922 224.844 787.602 225.027L786.443 226.017ZM786.295 240.367H778.604L780.859 237.059H786.295C787.307 237.059 788.164 236.834 788.866 236.385C789.569 235.935 790.102 235.303 790.468 234.488C790.847 233.659 791.037 232.683 791.037 231.559C791.037 230.421 790.882 229.438 790.573 228.609C790.264 227.78 789.772 227.141 789.098 226.692C788.424 226.242 787.539 226.017 786.443 226.017H781.449L781.491 222.751H788.234L789.098 223.931C790.362 224.058 791.423 224.479 792.28 225.196C793.151 225.898 793.804 226.797 794.239 227.893C794.689 228.989 794.914 230.197 794.914 231.517C794.914 233.428 794.556 235.043 793.839 236.364C793.137 237.67 792.139 238.667 790.847 239.356C789.555 240.03 788.037 240.367 786.295 240.367Z" fill="white"/>
<path d="M803.974 222.182H810.949C812.846 222.182 814.447 222.562 815.753 223.32C817.074 224.065 818.071 225.111 818.746 226.46C819.434 227.809 819.778 229.389 819.778 231.201C819.778 232.55 819.581 233.786 819.188 234.91C818.809 236.019 818.24 236.989 817.481 237.818C816.737 238.632 815.817 239.264 814.721 239.714C813.625 240.149 812.368 240.367 810.949 240.367H800.919V209.687H804.796V237.059H810.949C812.129 237.059 813.077 236.785 813.794 236.237C814.524 235.675 815.058 234.945 815.395 234.046C815.732 233.147 815.901 232.184 815.901 231.159C815.901 230.133 815.732 229.192 815.395 228.335C815.058 227.478 814.524 226.797 813.794 226.291C813.077 225.772 812.129 225.512 810.949 225.512H803.974V222.182ZM826.331 209.687V240.367H822.454V209.687H826.331Z" fill="white"/>
<path d="M836.53 209.687L842.346 221.445L848.119 209.687H852.629L844.643 224.88L852.797 240.367H848.246L842.346 228.377L836.425 240.367H831.852L840.028 224.88L832.021 209.687H836.53Z" fill="white"/>
<path d="M397.61 280.329L409.557 256.687H413.435V287.367H409.557V263.704L397.61 287.367H393.754V256.687H397.61V280.329Z" fill="white"/>
<path d="M434.295 256.687V287.367H430.418V256.687H434.295ZM450.078 256.687L438.994 273.565H432.757L432.104 270.194H436.655L445.274 256.687H450.078ZM446.074 287.367L436.845 273.039L439.015 269.477L450.794 287.367H446.074Z" fill="white"/>
<path d="M462.257 277.19L468.768 256.687H473.236L464.407 282.247C464.126 282.963 463.824 283.659 463.501 284.333C463.192 284.993 462.812 285.583 462.363 286.103C461.913 286.623 461.351 287.037 460.677 287.346C460.003 287.655 459.16 287.81 458.148 287.81C457.839 287.81 457.481 287.789 457.074 287.746C456.68 287.718 456.428 287.683 456.315 287.641L456.399 284.396C456.526 284.424 456.786 284.452 457.179 284.48C457.587 284.494 457.874 284.501 458.043 284.501C458.675 284.501 459.16 284.34 459.497 284.017C459.848 283.694 460.122 283.286 460.319 282.795C460.515 282.289 460.705 281.776 460.888 281.256L462.257 277.19ZM457.369 256.687L463.985 275.799L464.891 279.571L461.625 279.824L453.049 256.687H457.369Z" fill="white"/>
<path d="M493.254 256.687V260.016H481.791V256.687H493.254ZM496.667 256.687V287.367H492.79V256.687H496.667ZM480.484 256.687H484.34L483.792 271.711C483.722 273.874 483.589 275.806 483.392 277.506C483.195 279.191 482.914 280.659 482.549 281.91C482.184 283.146 481.706 284.171 481.116 284.986C480.526 285.787 479.803 286.384 478.946 286.777C478.103 287.171 477.099 287.367 475.933 287.367H474.921V284.059L475.659 283.996C476.305 283.94 476.86 283.764 477.324 283.469C477.801 283.16 478.194 282.696 478.504 282.078C478.827 281.46 479.087 280.659 479.283 279.676C479.494 278.693 479.655 277.492 479.768 276.073C479.88 274.64 479.964 272.968 480.021 271.058L480.484 256.687Z" fill="white"/>
<path d="M506.465 269.182H513.44C515.337 269.182 516.938 269.562 518.244 270.32C519.565 271.065 520.562 272.111 521.237 273.46C521.925 274.809 522.269 276.389 522.269 278.201C522.269 279.55 522.072 280.786 521.679 281.91C521.3 283.019 520.731 283.989 519.972 284.818C519.228 285.632 518.308 286.264 517.212 286.714C516.116 287.149 514.859 287.367 513.44 287.367H503.41V256.687H507.287V284.059H513.44C514.62 284.059 515.568 283.785 516.285 283.237C517.015 282.675 517.549 281.945 517.886 281.046C518.223 280.147 518.392 279.184 518.392 278.159C518.392 277.133 518.223 276.192 517.886 275.335C517.549 274.478 517.015 273.797 516.285 273.291C515.568 272.772 514.62 272.512 513.44 272.512H506.465V269.182Z" fill="white"/>
<path d="M531.541 256.687V287.367H527.706V256.687H531.541ZM539.611 256.687V260.016H519.656V256.687H539.611Z" fill="white"/>
<path d="M551.98 277.19L558.491 256.687H562.958L554.129 282.247C553.848 282.963 553.546 283.659 553.223 284.333C552.914 284.993 552.535 285.583 552.085 286.103C551.636 286.623 551.074 287.037 550.4 287.346C549.725 287.655 548.882 287.81 547.871 287.81C547.562 287.81 547.204 287.789 546.796 287.746C546.403 287.718 546.15 287.683 546.038 287.641L546.122 284.396C546.248 284.424 546.508 284.452 546.902 284.48C547.309 284.494 547.597 284.501 547.766 284.501C548.398 284.501 548.882 284.34 549.22 284.017C549.571 283.694 549.845 283.286 550.041 282.795C550.238 282.289 550.428 281.776 550.61 281.256L551.98 277.19ZM547.091 256.687L553.708 275.799L554.614 279.571L551.348 279.824L542.772 256.687H547.091Z" fill="white"/>
<path d="M577.561 275.335H570.86V272.027H577.561C578.825 272.027 579.844 271.774 580.616 271.269C581.403 270.763 581.972 270.06 582.323 269.161C582.688 268.262 582.871 267.237 582.871 266.085C582.871 265.031 582.688 264.041 582.323 263.114C581.972 262.187 581.403 261.442 580.616 260.88C579.844 260.304 578.825 260.016 577.561 260.016H571.661V287.367H567.784V256.687H577.561C579.542 256.687 581.213 257.087 582.576 257.888C583.938 258.689 584.971 259.799 585.673 261.217C586.39 262.622 586.748 264.231 586.748 266.043C586.748 268.009 586.39 269.688 585.673 271.079C584.971 272.47 583.938 273.53 582.576 274.261C581.213 274.977 579.542 275.335 577.561 275.335Z" fill="white"/>
<path d="M608.367 269.878V273.186H595.071V269.878H608.367ZM595.598 256.687V287.367H591.721V256.687H595.598ZM611.802 256.687V287.367H607.925V256.687H611.802Z" fill="white"/>
<path d="M621.748 269.182H628.723C630.619 269.182 632.22 269.562 633.527 270.32C634.847 271.065 635.845 272.111 636.519 273.46C637.207 274.809 637.552 276.389 637.552 278.201C637.552 279.55 637.355 280.786 636.961 281.91C636.582 283.019 636.013 283.989 635.255 284.818C634.51 285.632 633.59 286.264 632.494 286.714C631.399 287.149 630.141 287.367 628.723 287.367H618.692V256.687H622.57V284.059H628.723C629.903 284.059 630.851 283.785 631.567 283.237C632.298 282.675 632.831 281.945 633.169 281.046C633.506 280.147 633.674 279.184 633.674 278.159C633.674 277.133 633.506 276.192 633.169 275.335C632.831 274.478 632.298 273.797 631.567 273.291C630.851 272.772 629.903 272.512 628.723 272.512H621.748V269.182ZM644.105 256.687V287.367H640.228V256.687H644.105Z" fill="white"/>
<path d="M654.303 256.687L660.119 268.445L665.893 256.687H670.402L662.416 271.88L670.571 287.367H666.019L660.119 275.377L654.198 287.367H649.625L657.801 271.88L649.794 256.687H654.303Z" fill="white"/>
<path d="M686.416 256.687H690.167L698.195 281.699L706.203 256.687H709.953L699.649 287.367H696.699L686.416 256.687ZM685.194 256.687H688.481L689.05 275.399V287.367H685.194V256.687ZM707.867 256.687H711.154V287.367H707.298V275.399L707.867 256.687Z" fill="white"/>
<path d="M734.312 284.059V287.367H720.995V284.059H734.312ZM721.69 256.687V287.367H717.813V256.687H721.69ZM732.521 269.878V273.186H720.995V269.878H732.521ZM734.101 256.687V260.016H720.995V256.687H734.101Z" fill="white"/>
<path d="M749.041 275.335H742.34V272.027H749.041C750.305 272.027 751.324 271.774 752.096 271.269C752.883 270.763 753.452 270.06 753.803 269.161C754.168 268.262 754.351 267.237 754.351 266.085C754.351 265.031 754.168 264.041 753.803 263.114C753.452 262.187 752.883 261.442 752.096 260.88C751.324 260.304 750.305 260.016 749.041 260.016H743.141V287.367H739.264V256.687H749.041C751.022 256.687 752.693 257.087 754.056 257.888C755.419 258.689 756.451 259.799 757.154 261.217C757.87 262.622 758.228 264.231 758.228 266.043C758.228 268.009 757.87 269.688 757.154 271.079C756.451 272.47 755.419 273.53 754.056 274.261C752.693 274.977 751.022 275.335 749.041 275.335Z" fill="white"/>
<path d="M783.156 269.372V274.703C783.156 276.867 782.917 278.77 782.439 280.414C781.976 282.043 781.294 283.406 780.395 284.501C779.496 285.597 778.415 286.419 777.15 286.967C775.886 287.515 774.46 287.789 772.873 287.789C771.342 287.789 769.944 287.515 768.68 286.967C767.415 286.419 766.327 285.597 765.414 284.501C764.5 283.406 763.791 282.043 763.285 280.414C762.794 278.77 762.548 276.867 762.548 274.703V269.372C762.548 267.209 762.794 265.312 763.285 263.683C763.777 262.039 764.479 260.67 765.393 259.574C766.306 258.478 767.394 257.656 768.659 257.108C769.923 256.547 771.321 256.266 772.852 256.266C774.439 256.266 775.865 256.547 777.129 257.108C778.408 257.656 779.489 258.478 780.374 259.574C781.273 260.67 781.962 262.039 782.439 263.683C782.917 265.312 783.156 267.209 783.156 269.372ZM779.321 274.703V269.33C779.321 267.644 779.18 266.197 778.899 264.989C778.618 263.767 778.204 262.77 777.656 261.997C777.108 261.224 776.434 260.655 775.633 260.29C774.833 259.911 773.905 259.721 772.852 259.721C771.854 259.721 770.955 259.911 770.155 260.29C769.368 260.655 768.694 261.224 768.132 261.997C767.57 262.77 767.134 263.767 766.825 264.989C766.53 266.197 766.383 267.644 766.383 269.33V274.703C766.383 276.403 766.53 277.864 766.825 279.086C767.134 280.294 767.57 281.292 768.132 282.078C768.708 282.851 769.396 283.427 770.197 283.806C770.998 284.171 771.89 284.354 772.873 284.354C773.927 284.354 774.854 284.171 775.654 283.806C776.469 283.427 777.143 282.851 777.677 282.078C778.225 281.292 778.632 280.294 778.899 279.086C779.18 277.864 779.321 276.403 779.321 274.703Z" fill="white"/>
<path d="M809.095 256.687V287.367H805.218V260.016H793.228V287.367H789.351V256.687H809.095Z" fill="white"/>
<path d="M825.741 275.335H819.041V272.027H825.741C827.006 272.027 828.024 271.774 828.797 271.269C829.583 270.763 830.152 270.06 830.504 269.161C830.869 268.262 831.051 267.237 831.051 266.085C831.051 265.031 830.869 264.041 830.504 263.114C830.152 262.187 829.583 261.442 828.797 260.88C828.024 260.304 827.006 260.016 825.741 260.016H819.841V287.367H815.964V256.687H825.741C827.722 256.687 829.394 257.087 830.756 257.888C832.119 258.689 833.152 259.799 833.854 261.217C834.57 262.622 834.929 264.231 834.929 266.043C834.929 268.009 834.57 269.688 833.854 271.079C833.152 272.47 832.119 273.53 830.756 274.261C829.394 274.977 827.722 275.335 825.741 275.335Z" fill="white"/>
<path d="M843.947 280.329L855.895 256.687H859.772V287.367H855.895V263.704L843.947 287.367H840.091V256.687H843.947V280.329Z" fill="white"/>
<path d="M880.886 275.42H874.227L872.267 274.598C870.357 273.895 868.889 272.821 867.863 271.374C866.852 269.913 866.346 268.101 866.346 265.937C866.346 263.957 866.719 262.278 867.463 260.901C868.208 259.525 869.268 258.478 870.645 257.762C872.036 257.045 873.672 256.687 875.555 256.687H883.941V287.367H880.064V260.016H875.555C873.77 260.016 872.436 260.55 871.551 261.618C870.666 262.685 870.223 264.125 870.223 265.937C870.223 267.117 870.42 268.171 870.813 269.098C871.221 270.025 871.825 270.756 872.626 271.29C873.426 271.823 874.431 272.09 875.639 272.09H880.907L880.886 275.42ZM875.702 273.312L869.465 287.367H865.335L871.783 273.312H875.702Z" fill="white"/>
<path d="M900.335 256.687V287.367H896.5V256.687H900.335ZM908.405 256.687V260.016H888.45V256.687H908.405Z" fill="white"/>
<path d="M916.981 280.329L928.929 256.687H932.806V287.367H928.929V263.704L916.981 287.367H913.125V256.687H916.981V280.329Z" fill="white"/>
<path d="M943.742 280.329L955.69 256.687H959.567V287.367H955.69V263.704L943.742 287.367H939.886V256.687H943.742V280.329ZM952.929 249.08H956.09C956.09 250.176 955.837 251.152 955.331 252.009C954.826 252.852 954.102 253.512 953.161 253.99C952.22 254.467 951.103 254.706 949.811 254.706C947.858 254.706 946.313 254.187 945.175 253.147C944.051 252.093 943.489 250.738 943.489 249.08H946.65C946.65 249.909 946.889 250.639 947.366 251.272C947.844 251.904 948.659 252.22 949.811 252.22C950.934 252.22 951.735 251.904 952.213 251.272C952.69 250.639 952.929 249.909 952.929 249.08Z" fill="white"/>
</svg>
