<svg width="961" height="173" viewBox="0 0 961 173" fill="none" xmlns="http://www.w3.org/2000/svg">
<path d="M0.452271 124.703V3.55279H42.7845V46.4826L78.8952 3.55279H128.88L80.8083 57.9283L136.769 124.703H83.9149L42.7763 74.6242V124.703H0.452271Z" fill="#FF0000"/>
<path d="M184.521 127.809C164.671 127.809 148.411 121.85 135.493 109.687C122.576 97.5238 116.118 82.2628 116.118 64.1322C116.118 46.0016 122.576 30.9851 135.493 18.822C148.411 6.6588 164.671 0.45493 184.521 0.45493C204.371 0.45493 220.632 6.6588 233.549 18.822C246.466 30.9851 252.925 46.0097 252.925 64.1322C252.925 82.2547 246.466 97.5238 233.549 109.687C220.632 121.85 204.371 127.809 184.521 127.809ZM184.521 36.4716C168.972 36.4716 157.739 48.6348 157.739 64.1322C157.739 79.6296 168.98 91.7928 184.521 91.7928C200.063 91.7928 211.304 80.1106 211.304 64.1322C211.304 48.1538 200.063 36.4716 184.521 36.4716Z" fill="#FF0000"/>
<path d="M259.302 124.703V3.55279H301.634V45.7652H339.421V3.55279H381.753V124.703H339.421V79.6296H301.634V124.703H259.302Z" fill="#FF0000"/>
<path d="M393.705 124.703V3.55279H473.334V37.4173H436.037V124.703H393.705Z" fill="#FF0000"/>
<path d="M481.247 172.402V3.55279H523.58V17.1426C531.951 5.93324 543.912 0.446777 559.935 0.446777C575.959 0.446777 589.113 6.65064 599.635 18.8138C610.157 30.977 615.422 46.0016 615.422 64.1241C615.422 82.2465 610.157 97.5157 599.635 109.679C589.113 121.842 575.959 127.801 559.935 127.801C543.912 127.801 532.196 122.315 523.58 111.105V172.394H481.247V172.402ZM573.327 64.1322C573.327 48.1538 562.805 36.227 547.738 36.227C536.971 36.227 529.082 40.5233 523.58 49.1076V79.1568C529.082 87.7411 536.971 92.0374 547.738 92.0374C562.805 92.0374 573.327 80.1106 573.327 64.1322Z" fill="#FF0000"/>
<path d="M638.411 110.633C625.257 98.9505 618.798 83.4449 618.798 64.1241C618.798 46.238 624.775 30.977 636.498 18.8138C648.214 6.65064 663.763 0.446777 683.139 0.446777C700.356 0.446777 714.467 6.40608 725.234 18.3328C736.238 30.015 741.732 45.2842 741.732 63.8876V74.3796H660.419C664.008 87.0156 678.356 93.2195 695.819 93.2195C708.973 93.2195 722.127 89.6406 734.799 82.7275V115.165C723.321 123.513 707.297 127.801 686.491 127.801C667.597 127.801 651.574 122.078 638.419 110.633H638.411ZM700.356 51.9609C700.119 39.7977 691.51 31.4498 681.226 31.4498C669.985 31.4498 661.85 39.3167 660.182 51.9609H700.364H700.356Z" fill="#FF0000"/>
<path d="M765.89 110.633C752.736 99.1869 746.04 83.6813 746.04 63.8876C746.04 44.094 752.736 28.5884 766.127 17.379C779.519 6.16966 795.305 0.446777 813.242 0.446777C826.633 0.446777 838.594 2.83539 849.116 7.84087V43.1401C839.313 39.0885 829.503 36.9363 819.938 36.9363C801.764 36.9363 787.653 47.1918 787.653 64.1241C787.653 81.0563 801.764 91.5482 819.701 91.5482C831.416 91.5482 841.701 89.1596 850.792 84.3906V119.445C839.076 124.932 826.396 127.793 812.768 127.793C794.831 127.793 779.281 122.07 765.89 110.625V110.633Z" fill="#FF0000"/>
<path d="M875.637 110.633C862.482 99.1869 855.787 83.6813 855.787 63.8876C855.787 44.094 862.482 28.5884 875.874 17.379C889.265 6.16966 905.052 0.446777 922.989 0.446777C936.38 0.446777 948.341 2.83539 958.862 7.84087V43.1401C949.06 39.0885 939.249 36.9363 929.684 36.9363C911.51 36.9363 897.4 47.1918 897.4 64.1241C897.4 81.0563 911.51 91.5482 929.447 91.5482C941.162 91.5482 951.447 89.1596 960.538 84.3906V119.445C948.823 124.932 936.143 127.793 922.514 127.793C904.578 127.793 889.028 122.07 875.637 110.625V110.633Z" fill="#FF0000"/>
</svg>
